<svg xmlns="http://www.w3.org/2000/svg" width="149.262" height="44.18" viewBox="0 0 149.262 44.18"><defs><style>.a{fill:#007cba;}</style></defs><g transform="translate(-28.984 -28.984)"><g transform="translate(28.984 28.984)"><path class="a" d="M89.858,61.625l-.086.161H88.114l-2.028-2.959a6.931,6.931,0,0,1-1.117.237l-.173.022v2.7H83.127V54.2H84.8v3.469l.055-.011a2.98,2.98,0,0,0,2.655-2.96v-.5h1.7v.575a3.926,3.926,0,0,1-1.681,3.36Z" transform="translate(-15.872 -22.878)"/><path class="a" d="M91.193,55.672v1.713h3v1.291l-3,.01v1.627H94.37v1.473H89.524V54.2H94.37v1.474Z" transform="translate(-14.323 -22.878)"/><path class="a" d="M94.934,61.433l-.271-1.573.032-.021a6.138,6.138,0,0,0,2.645.683c.911,0,1.529-.3,1.529-.824,0-.391-.271-.609-.7-.759L96.2,58.4a2.033,2.033,0,0,1-1.474-2.016c0-1.453,1.2-2.287,2.959-2.287a5.36,5.36,0,0,1,2.364.5V56.1a4.5,4.5,0,0,0-2.309-.607c-1,0-1.344.369-1.344.878,0,.25.087.607.672.8l1.887.564a1.96,1.96,0,0,1,1.571,1.929c0,1.442-1.3,2.277-3.112,2.277A7.238,7.238,0,0,1,94.934,61.433Z" transform="translate(-13.078 -22.903)"/><path class="a" d="M107.4,61.625l-.087.161h-1.658l-2.027-2.959a6.96,6.96,0,0,1-1.117.237l-.174.022v2.7h-1.669V54.2h1.669v3.469l.055-.011a2.981,2.981,0,0,0,2.656-2.96v-.5h1.7v.575a3.923,3.923,0,0,1-1.681,3.36Z" transform="translate(-11.624 -22.878)"/><path class="a" d="M106.541,58.018a4.034,4.034,0,1,1,4.033,3.924A3.9,3.9,0,0,1,106.541,58.018Zm6.364,0a2.337,2.337,0,0,0-2.33-2.428,2.43,2.43,0,1,0,2.33,2.428Z" transform="translate(-10.202 -22.903)"/><path class="a" d="M122.916,54.2v7.588h-1.669V57.493l-2.515,3.231h-.261l-2.515-3.231v4.293h-1.669V54.2h1l3.317,4.325,3.307-4.325Z" transform="translate(-8.326 -22.878)"/><path class="a" d="M131.522,54.2v7.588h-1.669V57.493l-2.515,3.231h-.26l-2.515-3.231v4.293h-1.669V54.2h1l3.317,4.325,3.307-4.325Z" transform="translate(-6.242 -22.878)"/><path class="a" d="M131.393,58.372V54.2h1.669v4.228c0,1.2.629,1.973,1.669,1.973s1.647-.78,1.647-1.995V54.2h1.669v4.174a3.334,3.334,0,1,1-6.656,0Z" transform="translate(-4.183 -22.878)"/><path class="a" d="M144.865,54.2v7.588h-.488l-4.412-4.336v4.336h-1.669V54.2h.478l4.422,4.467V54.2Z" transform="translate(-2.512 -22.878)"/><path class="a" d="M146.913,55.672v1.713h3v1.291l-3,.01v1.627h3.177v1.473h-4.847V54.2h4.847v1.474Z" transform="translate(-0.829 -22.878)"/><path class="a" d="M69.308,55.672v1.789h2.852V58.8H69.308v2.992H67.639V54.2h4.847v1.474Z" transform="translate(-19.623 -22.878)"/><path class="a" d="M83.188,60.27v1.518H78.351V54.2H80.02V60.27Z" transform="translate(-17.029 -22.878)"/><path class="a" d="M79.091,54.2v.13l-2.707,4.166v3.293H74.715V58.495l-2.729-4.166V54.2h1.735l1.828,2.994L77.357,54.2Z" transform="translate(-18.57 -22.878)"/><path class="a" d="M28.984,28.984l.022,18.48c.01,8.729,6.935,19.475,17.978,25.7,11.044-6.226,17.969-16.972,17.979-25.7l.022-18.48Zm18,36c-3.348,0-6.062-.64-6.062-.868s2.714-.868,6.062-.868,6.063.64,6.063.868S50.333,64.983,46.984,64.983Zm0-4.652c-5.144,0-9.314-.935-9.314-1.334s4.17-1.334,9.314-1.334S56.3,58.6,56.3,59,52.129,60.332,46.984,60.332Zm0-5.4c-6.315,0-11.434-1.159-11.434-1.638s5.119-1.637,11.434-1.637S58.42,52.809,58.42,53.288,53.3,54.927,46.984,54.927ZM58.86,47.95a86.2,86.2,0,0,1-11.875.713A90.088,90.088,0,0,1,35.11,47.95c-.088-.017-.163-.07-.129-.154A34.208,34.208,0,0,1,46.82,32.307a.286.286,0,0,1,.329,0A34.208,34.208,0,0,1,58.989,47.8C59.021,47.88,58.948,47.931,58.86,47.95Z" transform="translate(-28.984 -28.984)"/><path class="a" d="M86.434,28.984h5.348v24.3H86.434Z" transform="translate(-15.071 -28.984)"/><path class="a" d="M117.293,52.768l-.277.52H111.7l-6.493-9.478a22.413,22.413,0,0,1-3.576.763l-.555.07v8.646H95.733v-24.3h5.346v11.11l.174-.034c5.069-1.112,8.506-4.305,8.506-9.479v-1.6h5.452v1.84a12.573,12.573,0,0,1-5.382,10.765Z" transform="translate(-12.819 -28.984)"/><path class="a" d="M120.784,33.705v5.487H130.4v4.131l-9.617.035v5.208h10.173v4.721H115.436v-24.3h15.521v4.721Z" transform="translate(-8.048 -28.984)"/><path class="a" d="M153.248,28.984v24.3h-1.563L137.555,39.4V53.288h-5.348v-24.3h1.528l14.166,14.3v-14.3Z" transform="translate(-3.986 -28.984)"/><path class="a" d="M88.824,28.984V29.4L78.905,53.281H74.541L64.727,29.4v-.416h5.484l6.581,17.761L83.27,28.984Z" transform="translate(-20.328 -28.984)"/></g></g></svg>