<svg id="Layer_1" data-name="Layer 1" xmlns="http://www.w3.org/2000/svg" viewBox="0 0 558.98 100"><title>drømtorp-videregående-skole</title><path d="M.8,3.18l0,40.09c0,18.93,15,42.24,39,55.75,24-13.51,39-36.82,39-55.75L78.9,3.18Z" fill="#fff"/><path d="M0,2.2.05,43.11C.07,62.43,15.4,86.22,39.85,100,64.3,86.22,79.62,62.43,79.65,43.11l0-40.91ZM39.85,81.89c-7.41,0-13.42-1.42-13.42-1.92S32.44,78,39.85,78,53.27,79.46,53.27,80,47.26,81.89,39.85,81.89Zm0-10.3c-11.39,0-20.62-2.07-20.62-3s9.23-3,20.62-3,20.62,2.07,20.62,3S51.24,71.59,39.85,71.59Zm0-12c-14,0-25.31-2.57-25.31-3.63s11.33-3.62,25.31-3.62S65.16,54.94,65.16,56,53.83,59.63,39.85,59.63ZM66.13,44.18c-3.08.63-14.63,1.58-26.28,1.58s-23.31-1-26.29-1.58c-.19,0-.36-.15-.28-.34A75.81,75.81,0,0,1,39.48,9.55a.65.65,0,0,1,.73,0A75.74,75.74,0,0,1,66.42,43.84C66.49,44,66.33,44.14,66.13,44.18Z" fill="#231f20"/><path d="M126.94,74.82h4.58V95.61h-4.58Z" fill="#231f20"/><path d="M156.17,85.21c0,6.21-4.24,10.4-10.42,10.4H137V74.82h8.77C152.07,74.82,156.17,79,156.17,85.21Zm-4.66,0c0-3.8-2.38-6.35-5.94-6.35h-4V91.57h4C149.19,91.57,151.51,89,151.51,85.21Z" fill="#231f20"/><path d="M164.74,78.86v4.69H173v3.54l-8.22,0v4.45h8.7v4H160.16V74.82h13.28v4Z" fill="#231f20"/><path d="M195.33,95.17l-.24.44h-4.78l-6.09-7h-1.7v7h-4.36V74.82h7.52c4.95,0,8.25,2.76,8.25,6.86A6.74,6.74,0,0,1,189,88.15Zm-12.81-10h2.65c2.74,0,4.34-1.42,4.34-3.32s-1.6-3.24-4.34-3.24h-2.65Z" fill="#231f20"/><path d="M203.28,78.86v4.69h8.23v3.54l-8.23,0v4.45H212v4H198.71V74.82H212v4Z" fill="#231f20"/><path d="M237,84.17v1A10.49,10.49,0,0,1,226.45,96c-6.21,0-11.23-4.37-11.23-10.7s5-10.81,11.31-10.81a12.42,12.42,0,0,1,8.18,2.91l-2.21,3.3-.2.06a8.71,8.71,0,0,0-5.77-2.11A6.69,6.69,0,0,0,226.47,92a5.77,5.77,0,0,0,5.71-4.25h-5.77V84.17Z" fill="#231f20"/><path d="M253.52,91.6h-10l-1.75,4h-4.64l9.18-20a3.47,3.47,0,0,1-1.51-2.85,3.7,3.7,0,0,1,7.39,0,3.48,3.48,0,0,1-1.51,2.88l9.21,19.93h-4.63Zm-1.63-3.71-3.36-7.58-3.33,7.58Zm-5-15.09a1.71,1.71,0,0,0,3.41,0,1.71,1.71,0,0,0-3.41,0Z" fill="#231f20"/><path d="M266.93,78.86v4.69h8.23v3.54l-8.23,0v4.45h8.7v4H262.35V74.82h13.28v4Z" fill="#231f20"/><path d="M298.35,74.82V95.61H297L284.92,83.73V95.61h-4.57V74.82h1.31l12.12,12.24V74.82Z" fill="#231f20"/><path d="M323,85.21c0,6.21-4.24,10.4-10.42,10.4h-8.77V74.82h8.77C318.91,74.82,323,79,323,85.21Zm-4.66,0c0-3.8-2.38-6.35-5.94-6.35h-4V91.57h4C316,91.57,318.34,89,318.34,85.21Z" fill="#231f20"/><path d="M331.57,78.86v4.69h8.23v3.54l-8.23,0v4.45h8.7v4H327V74.82h13.28v4Z" fill="#231f20"/><path d="M353.52,94.57l-.74-4.3.09-.06a17,17,0,0,0,7.25,1.87c2.5,0,4.19-.83,4.19-2.26,0-1.07-.74-1.67-1.93-2.08L357,86.25a5.56,5.56,0,0,1-4-5.52c0-4,3.3-6.27,8.11-6.27a14.73,14.73,0,0,1,6.48,1.37V80a12.34,12.34,0,0,0-6.33-1.67c-2.73,0-3.69,1-3.69,2.41,0,.68.24,1.66,1.85,2.2l5.17,1.54c2.67.77,4.31,2.65,4.31,5.29,0,4-3.57,6.24-8.53,6.24A20,20,0,0,1,353.52,94.57Z" fill="#231f20"/><path d="M391.14,95.17l-.24.44h-4.54l-5.55-8.11a18.12,18.12,0,0,1-3.07.65l-.47.06v7.4H372.7V74.82h4.57v9.5l.15,0c4.34-1,7.27-3.68,7.27-8.11V74.82h4.67v1.57a10.74,10.74,0,0,1-4.61,9.21Z" fill="#231f20"/><path d="M392.37,85.21a10.69,10.69,0,0,1,11.05-10.75c6.33,0,11.05,4.58,11.05,10.75A10.69,10.69,0,0,1,403.42,96C397.09,96,392.37,91.39,392.37,85.21Zm17.44,0a6.4,6.4,0,0,0-6.39-6.65,6.66,6.66,0,0,0,0,13.31A6.39,6.39,0,0,0,409.81,85.21Z" fill="#231f20"/><path d="M431.41,91.45v4.16h-13V74.82H423V91.45Z" fill="#231f20"/><path d="M439.26,78.86v4.69h8.23v3.54l-8.23,0v4.45H448v4H434.68V74.82H448v4Z" fill="#231f20"/><polygon points="124.06 74.82 124.06 75.17 115.57 95.61 111.84 95.61 103.44 75.17 103.44 74.82 108.13 74.82 113.77 90.02 119.31 74.82 124.06 74.82" fill="#231f20"/><path d="M156,29.12C156,45.17,145,56,129,56H106.36V2.23H129C145.38,2.23,156,13.14,156,29.12Zm-12.06,0c0-9.84-6.14-16.44-15.36-16.44H118.19V45.56h10.37C137.93,45.56,143.92,38.87,143.92,29.12Z" fill="#231f20"/><path d="M209.93,54.85,209.32,56H197L181.2,38h-4.38V56H165.53V2.23H185c12.83,0,21.36,7.14,21.36,17.74,0,7.76-4.84,14.14-12.75,16.75ZM176.82,29.12h6.84c7.07.07,11.21-3.69,11.21-8.61s-4.14-8.37-11.21-8.37h-6.84Z" fill="#231f20"/><path d="M272.42,29.12c0,16.05-12.6,27.81-28.58,27.81a29.86,29.86,0,0,1-15.21-4l-5,6-4.92-4.07,4.76-5.76a27.22,27.22,0,0,1-8.22-20c0-16,12.53-27.81,28.58-27.81a30.28,30.28,0,0,1,15.9,4.37L264.43,0l5,4.07-4.68,5.61A27.28,27.28,0,0,1,272.42,29.12ZM230.94,40.18l21.58-25.81a16,16,0,0,0-8.68-2.46c-9.6,0-16.52,7.37-16.52,17.21A17.83,17.83,0,0,0,230.94,40.18Zm29.42-11.06a17.85,17.85,0,0,0-3.15-10.38L235.85,44.33a16.1,16.1,0,0,0,8,2C253.14,46.32,260.36,39,260.36,29.12Z" fill="#231f20"/><path d="M343.67,2.23V56H331.84V25.58L314,48.48h-1.84l-17.82-22.9V56H282.52V2.23h7.06l23.51,30.65L336.52,2.23Z" fill="#231f20"/><path d="M398.05,13H380.23V56H368.4V13H350.58V2.23h47.47Z" fill="#231f20"/><path d="M400.58,29.12c0-16,12.52-27.81,28.58-27.81,16.36,0,28.58,11.83,28.58,27.81s-12.6,27.81-28.58,27.81C412.79,56.93,400.58,45.1,400.58,29.12Zm45.09,0c0-10-7.37-17.21-16.51-17.21-9.61,0-16.52,7.37-16.52,17.21s7,17.2,16.52,17.2C438.45,46.32,445.67,39,445.67,29.12Z" fill="#231f20"/><path d="M511.68,54.85,511.07,56H498.7L483,38h-4.38V56H467.28V2.23h19.44c12.83,0,21.35,7.14,21.35,17.74,0,7.76-4.84,14.14-12.75,16.75ZM478.57,29.12h6.84c7.07.07,11.22-3.69,11.22-8.61s-4.15-8.37-11.22-8.37h-6.84Z" fill="#231f20"/><path d="M559,20.43c0,10.38-8.53,18.29-21.36,18.29h-7V56H519.34V2.23h18.28C550.45,2.23,559,9.91,559,20.43Zm-11.37.24c0-5.31-4.23-8.53-10.53-8.53h-6.45v17h6.45C543.38,29.19,547.61,26.12,547.61,20.67Z" fill="#231f20"/></svg>